<svg id="Camada_1" data-name="Camada 1" xmlns="http://www.w3.org/2000/svg" viewBox="0 0 1000 1000"><defs><style>.cls-1,.cls-4{fill:#732d2c}.cls-2{fill:#772e2e}.cls-3{fill:#722d2c}.cls-4{fill-rule:evenodd}</style></defs><g id="Camada_1-2" data-name="Camada_1"><g id="_2063740143664" data-name="2063740143664"><path class="cls-1" d="M700.27 428.72c-4 0-8.66-1.08-11.77.62-2.84 1.55-1.11 6.73-2.14 10.17-9.05 30.24-16.56 60.94-27.21 91.07h35.57c1.35 0 2.17-.18 2.23-2l7.72-31.81c6.75-22.58 11.87-45.67 20.85-68.07h-25.25ZM846.08 529.34a55.49 55.49 0 0 1-4.59-13.25c-6.57-27.92-13.2-55.82-19.71-83.75-.6-2.58-1.4-3.88-4.37-3.84-10.79.17-21.6.14-32.39 0-2.93 0-3.41 1-2 3.26s1.34 4.21-.57 6.49c-25.25 30.14-48.36 62.05-75.13 91-1.71.76-2.06 1.77.15 1.82 6.57.18 13.16.06 19.74.05 1 0 1.5-.65 1.62-1.61 3.86-9.68 11.06-17.09 17.09-25.31a4.82 4.82 0 0 1 4.43-2c15.65.05 31.3.08 46.95 0 2.47 0 3.86.61 4.31 3.14 1.27 7 3.49 13.83 3.46 21v.45c-.26 1.63-3.65 4.15.92 4.25 13.15.29 26.32.13 39.48.09 1.33 0 2-.6.6-1.74Zm-57.25-78.4c2.38 10 4.62 19.12 6.7 28.25s2 9.26-7.33 9.26h-29.34l30-37.51ZM515.45 529.35c-2.66-5-3.93-10.38-5.21-15.79-6.39-27.07-12.8-54.13-19.06-81.23-.69-3-1.89-3.89-4.9-3.83h-31.35c-3.32 0-4.24.93-2.32 3.71 1.81 2.63.56 4.38-1.13 6.4-25.06 30.07-48.09 61.83-74.74 90.6-3.19 1.73-.74 1.83.62 1.84 6.24.08 12.48 0 18.72 0 1.15 0 2.06-.23 2.19-1.59 3.84-9.93 11.29-17.4 17.42-25.78a3.88 3.88 0 0 1 3.59-1.56h48.05c1.35 0 2.89-.3 3.22 1.69 1.41 8.47 5.48 16.64 2.92 25.56l-.31.81c-.17.44.76.8 1.16.8q20.3.08 40.6 0c1.42.09 1.92-.57.53-1.63Zm-57.16-78.45c2.88 12.31 5.44 23.55 8.2 34.74.66 2.7-.45 2.85-2.56 2.84-11.46-.06-22.91 0-35.67 0ZM979.56 428.57c-24.71 0-49.4.18-74.11.33-13.91.08-24.67 5-28.78 16.66a278 278 0 0 0-8.45 29.44c-2.15 9.31 2.33 16 12.16 16.7s1.94.18 2.91.18c-2.08 0 5.55.57 5.64.57 13.77 0 27.54 0 41.31.05 5.74 0 6.39 1.05 4.88 6.66-1 3.69-2.29 7.31-3.15 11-1.1 4.83-4 7.14-8.88 7.11l-54.38-.22c-3.86-.11-8.9-3.72-11.12-.43-2.11 3.12-1 8.41-1.33 12.74.53 3.14 3 1.59 4.47 1.6 24.9 0 49.8.21 74.7.06 12.62-.07 25.11-4.84 29.49-17.7 3.47-10.2 6.44-20.6 9-31.06 2.69-10.93-2.37-17.46-13.69-18.56-2.42-.24-4.87-.25-7.31-.26h-40.27c-6.33 0-7-1-5.18-7.18.73-2.51 1.51-5 2.18-7.52 1.13-4.22 3.79-6.69 8.2-6.67 19.69.07 39.39-.69 59.08.58 2.46.16 5.26 2.88 7.12.7 1.7-2 .95-5.33.93-8.1 1.22-6.71 1.22-6.71-5.44-6.71ZM652.74 429.49a19.64 19.64 0 0 0-8.79-.58 20.35 20.35 0 0 0-2.56-.32H554.3c-1.19 0-2.46-.32-3.5.59-1.43 10.62-4.43 20.87-7.61 31-7.08 22.66-12.06 45.95-20.77 68.1-2.71 4.5 1.58 2.67 2.74 2.68q44.26.16 88.54.06c12.64 0 25.3-5.26 29.6-18.23 2-6.09 3.84-12.25 5.51-18.44 2-7.37.29-10.16-6.92-13.22a27.53 27.53 0 0 1-3.1-1.81c7-.94 13.49-3.1 16.61-10.08a94.51 94.51 0 0 0 7.33-25.48c1-7.5-2.67-12.27-10-14.31Zm-37.86 63.06c-1.71 6.38-3.67 12.68-5.5 19-1.11 3.85-3.61 5.77-7.63 5.75h-18.26c-5.92 0-11.84-.08-17.75 0-2.54.05-4 0-2.91-3.35 2.56-8.11 4.79-16.33 7.07-24.52.7-2.52 1.94-3.54 4.75-3.5 11.83.17 23.66 0 35.49.11 5.29 0 6.14 1.22 4.74 6.42Zm12.66-44c-1.79 5.62-3.3 11.34-4.88 17-1.34 4.83-4.2 6.94-9.48 6.91l-36.48.29c-1 0-1.57-.7-1.22-1.8l8.9-29.19 39.39-.08c3.92.84 4.98 3.05 3.77 6.87Z"/><path class="cls-2" d="M11.86 577a7.73 7.73 0 0 1 .52 3.09c0 4.15-2.58 6.29-6 6.29-4.1 0-6.38-2.93-6.38-6.56a7.26 7.26 0 0 1 .53-3l2.16.55a5.92 5.92 0 0 0-.45 2.28 3.62 3.62 0 0 0 4 3.83 3.58 3.58 0 0 0 3.92-3.84 6.69 6.69 0 0 0-.4-2.27ZM.36 574.28a22.87 22.87 0 0 1-.25-3.62 6.09 6.09 0 0 1 .94-3.88 3.05 3.05 0 0 1 2.51-1.1 3.18 3.18 0 0 1 3 2.11h.05a3 3 0 0 1 2.25-1.6 35.11 35.11 0 0 0 3.38-1V568a15.05 15.05 0 0 1-2.79.84c-1.5.32-1.91.84-1.93 1.94v.82h4.68v2.69Zm5.16-2.69v-1.07c0-1.35-.67-2.15-1.73-2.15s-1.65.74-1.67 2a6.39 6.39 0 0 0 .09 1.23ZM7.13 555.68v4.42h2.85v-4.94h2.22v7.66H.2v-7.41h2.22v4.69h2.5v-4.42h2.21zM11.86 543.6a7.71 7.71 0 0 1 .52 3.08c0 4.15-2.58 6.29-6 6.29-4.1.03-6.38-2.92-6.38-6.56a7.24 7.24 0 0 1 .53-2.95l2.16.55a5.88 5.88 0 0 0-.45 2.28 3.62 3.62 0 0 0 4 3.83 3.59 3.59 0 0 0 3.92-3.85 6.58 6.58 0 0 0-.4-2.26ZM.2 538.2h12v2.72H.2v-2.72zM.2 528.11v-2.71h7.59c3.42 0 4.61 1.64 4.61 4.28a7.07 7.07 0 0 1-.29 2l-2.19-.31a4.24 4.24 0 0 0 .22-1.38c0-1.15-.52-1.86-2.39-1.86ZM6.63 518.22h1.8v4.67h-1.8v-4.67zM12.2 516.05h-1.64l-1.35-1.5C7 512 5.65 510.79 4.29 510.76c-.94 0-1.69.57-1.69 1.9a4.23 4.23 0 0 0 1 2.48l-1.94.77a6.43 6.43 0 0 1-1.19-3.8c0-2.62 1.53-4.06 3.63-4.06 1.94 0 3.49 1.41 5 3.08l.89 1.07v-4.36h2.21ZM10.24 504.41a5.63 5.63 0 0 0 0-1.17 4.58 4.58 0 0 0-.71-2.24 3.57 3.57 0 0 0-2.14-1.46v.05a3.07 3.07 0 0 1 .83 2.32 3.48 3.48 0 0 1-3.61 3.61 4.21 4.21 0 0 1-4.17-4.36c0-3 2.28-4.38 5-4.38a6.89 6.89 0 0 1 5.32 2 6.79 6.79 0 0 1 1.62 4.41 8.33 8.33 0 0 1 0 1.23Zm-5.8-1.64a1.65 1.65 0 0 0 1.85-1.63 1.7 1.7 0 0 0-.77-1.5 1.26 1.26 0 0 0-.67-.14c-1.23 0-2.45.46-2.45 1.69 0 .92.82 1.6 2.04 1.58ZM2.85 486.76v4.49l1.78.25a6 6 0 0 1 0-.75 5.35 5.35 0 0 1 .83-3.05 3.31 3.31 0 0 1 2.91-1.41c2.15 0 4.06 1.86 4.06 5a7.35 7.35 0 0 1-.66 3.23l-2-.48a6.67 6.67 0 0 0 .57-2.62c0-1.12-.54-2.32-1.76-2.32s-1.93.95-1.93 3.26a10.15 10.15 0 0 0 .11 1.57l-6.08-.77v-6.37ZM12.2 483.71h-1.64l-1.35-1.5c-2.26-2.53-3.56-3.76-4.92-3.79-.94 0-1.69.57-1.69 1.9a4.23 4.23 0 0 0 1 2.48l-1.94.77a6.43 6.43 0 0 1-1.19-3.8c0-2.62 1.53-4.06 3.63-4.06 1.94 0 3.49 1.41 5 3.08l.89 1.07v-4.36h2.21ZM3.03 469.47v.04l1.05 2.21-2.03.44-1.43-3.06v-2.25H12.2v2.62H3.03z"/><path class="cls-3" d="M991.35 411a8.5 8.5 0 1 0 8.65 8.44 8.55 8.55 0 0 0-8.65-8.44Zm0 16.07a7.58 7.58 0 1 1 0-15.16 7.58 7.58 0 1 1 0 15.16Z"/><path class="cls-3" d="M994.85 421.77a2.51 2.51 0 0 0-1.54-2.06v-.1a2.17 2.17 0 0 0 1.75-2 2.35 2.35 0 0 0-.83-1.85 5.26 5.26 0 0 0-2.93-.62 16.6 16.6 0 0 0-3.25.26v8.44h2v-3.4h.93c1.08 0 1.59.42 1.75 1.34a7.22 7.22 0 0 0 .67 2.06h2.11a6.37 6.37 0 0 1-.62-2.11Zm-3.85-2.68h-.93v-2.42a4.87 4.87 0 0 1 1.08-.1c1.24 0 1.81.51 1.81 1.29s-.89 1.23-1.96 1.23Z"/><path class="cls-4" d="m843.18 607.03-2.94-33.76h9.57l.85 22.99 14.82-22.99h9.99L853 607.03h-9.82zM812.28 569.49l6.92-10.93h8.48l-10.63 10.93h-4.77zM796.81 589.63a24.59 24.59 0 0 1 4.22-8.29 21 21 0 0 1 7.15-6.12 18.18 18.18 0 0 1 8.44-2.12c4.48 0 7.69 1.6 9.66 4.79s2.28 7.23.92 12.11a24.2 24.2 0 0 1-7.72 12.23 18.51 18.51 0 0 1-12.24 4.85 13 13 0 0 1-7.19-2 9 9 0 0 1-4-5.93 20.15 20.15 0 0 1 .72-9.5Zm8.42.17c-.77 2.75-.77 4.86 0 6.32a4 4 0 0 0 3.81 2.2 7.38 7.38 0 0 0 5-2.2 13.31 13.31 0 0 0 3.56-6.37q1.14-4.08 0-6.27a4 4 0 0 0-3.79-2.2 7.42 7.42 0 0 0-5 2.2 13 13 0 0 0-3.58 6.32ZM743.33 574.14h8.46l-.88 4.61c3.3-3.55 6.33-5.32 9.65-5.32a6.49 6.49 0 0 1 4.25 1.33 7.11 7.11 0 0 1 2.46 4 19.12 19.12 0 0 1 4.66-4 10 10 0 0 1 4.83-1.33 7.85 7.85 0 0 1 5 1.5 6.52 6.52 0 0 1 2 4.44c.14 1.43-.16 2.89-1 6.11L777.37 607h-7.57l3.55-15.47c.78-3.37 1.15-5.52.89-6.48a2.45 2.45 0 0 0-2.63-1.91 5.65 5.65 0 0 0-3.18 1.14 9.24 9.24 0 0 0-2.8 3.35 29.26 29.26 0 0 0-2.36 7L760.49 607h-7.28l3.35-14.68a42.55 42.55 0 0 0 1.22-6.34 3.18 3.18 0 0 0-.66-2.14 2.66 2.66 0 0 0-2-.7 7.76 7.76 0 0 0-3.9 1.11 8.66 8.66 0 0 0-2.74 3.21 32 32 0 0 0-2.35 7L743 607h-8.16l8.52-32.89ZM708.31 607.03l11.82-46.58h9.46l-11.81 46.58h-9.47zM919.64 607.03l8.6-33.9h9.46l-8.59 33.9h-9.47z"/><ellipse class="cls-1" cx="935.47" cy="564.77" rx="6.15" ry="4.97" transform="rotate(-61.88 935.442 564.774)"/><path class="cls-1" d="M963 587.85c-1.43-.86-6-3.72-5.18-5.68a3.16 3.16 0 0 1 3.28-2 11.73 11.73 0 0 1 4.44 1.82l1.88 1.36 4-7c-2.79-4-9.75-4.39-14.2-2.75a12.5 12.5 0 0 0-8.44 10.09c-.71 4.07 2.69 7 4.74 8.2 1.46.87 6.25 3.73 5.48 5.68-.55 1.37-3.61 1.78-5 1.64a8.44 8.44 0 0 1-3.73-1.55l-1.87-1.36-5 6.49c2.78 4 11.46 5 15.91 3.4a12.5 12.5 0 0 0 8.44-10.09c.71-4.08-1.62-6.32-4.74-8.2Z"/><path class="cls-4" d="M85.51 585.01 211.4 392.43h-58.37L27.14 585.01h58.37z"/><path style="fill:#c23a39;fill-rule:evenodd" d="m122.12 585.01 116.27-110.86L355.1 585.01h31.6L253.57 392.32l-35.36.11L92.32 585.01h29.8z"/><path class="cls-4" d="m246.03 585.01-43.88-69.59 36.02-34.52 110.07 104.11H246.03z"/></g><path class="cls-4" d="m899.08 596.85 4.4 5.38c-4.75 4.52-8.85 5.66-14 5.42s-8.87-2.83-10.38-6.49c-1.2-2.92-1.13-6.62.17-11.09a25.15 25.15 0 0 1 7.7-12.5 16.5 16.5 0 0 1 11.24-4.24c4.62 0 7.53 1.29 9.28 4.44s2.58 9.15.55 15.67h-20.85c-2.53 9.4 9.79 8.53 11.89 3.41Zm1.37-10.85c.4-2.58.51-3.26-.19-4.55a3.46 3.46 0 0 0-3.27-2c-3.31 0-6.67 3.57-7.41 6.5Z"/></g></svg>