<svg xmlns="http://www.w3.org/2000/svg" xmlns:xlink="http://www.w3.org/1999/xlink" viewBox="0 0 998.16 466"><defs><linearGradient id="linear-gradient" x1="2353.5" y1="304.86" x2="2353.5" y2="422.4" gradientUnits="userSpaceOnUse"><stop offset="0" stop-color="#fff"/><stop offset="1"/></linearGradient><linearGradient id="linear-gradient-2" x1="2401.19" y1="375.9" x2="2401.19" y2="448.1" gradientTransform="rotate(180 2377.345 536.94)" xlink:href="#linear-gradient"/><linearGradient id="linear-gradient-3" x1="482.5" y1="553.47" x2="499.76" y2="219.81" gradientUnits="userSpaceOnUse"><stop offset="0" stop-color="#44b2e8"/><stop offset="1" stop-color="#24618e"/></linearGradient><linearGradient id="linear-gradient-5" x1="2337.78" y1="803.84" x2="2354.14" y2="487.59" xlink:href="#linear-gradient-3"/><linearGradient id="linear-gradient-6" x1="2353.5" y1="304.86" x2="2353.5" y2="422.4" gradientUnits="userSpaceOnUse"><stop offset="0" stop-color="#fff"/><stop offset="1" stop-color="#24618e"/></linearGradient><linearGradient id="linear-gradient-7" x1="2401.19" y1="375.9" x2="2401.19" y2="448.1" gradientTransform="rotate(180 1450.135 403.44)" gradientUnits="userSpaceOnUse"><stop offset="0" stop-color="#fff"/><stop offset="1" stop-color="#44b2e8"/></linearGradient><mask id="mask" x="215.74" y="22.4" width="566.68" height="155.31" maskUnits="userSpaceOnUse"><path d="M2636.84 367.06c0 42.89-126.85 77.65-283.34 77.65s-283.34-34.71-283.34-77.65S2197 289.4 2353.5 289.4s283.34 34.77 283.34 77.66Z" style="fill:url(#linear-gradient)" transform="translate(-1854.42 -267)"/></mask><mask id="mask-2" x="277.58" y="345.08" width="442.99" height="95.39" maskUnits="userSpaceOnUse"><ellipse cx="2353.5" cy="659.77" rx="221.49" ry="47.7" style="fill:url(#linear-gradient-2)" transform="translate(-1854.42 -267)"/></mask><style>.cls-7{fill:#fefefe}</style></defs><g style="isolation:isolate"><g id="logos"><g id="ca_and_ma" data-name="ca and ma"><ellipse cx="499.08" cy="233" rx="499.08" ry="233" style="fill:url(#linear-gradient-3)"/><path d="M2353.5 267c-275.64 0-499.08 104.32-499.08 233s223.44 233 499.08 233 499.08-104.31 499.08-233-223.45-233-499.08-233Zm335.62 391.4c-89.69 41.87-208.88 64.94-335.62 64.94s-245.93-23.07-335.62-64.94c-90.27-42.14-140-98.4-140-158.4s49.72-116.25 140-158.4c89.69-41.87 208.88-64.93 335.62-64.93s245.93 23.06 335.62 64.93c90.27 42.15 140 98.4 140 158.4s-49.73 116.26-140 158.4Z" transform="translate(-1854.42 -267)" style="mix-blend-mode:multiply;fill:url(#linear-gradient-3)"/><path d="M2687.07 346c-89.07-41.6-207.52-64.5-333.57-64.5-259.59 0-470.77 98-470.77 218.5s211.18 218.5 470.77 218.5 470.77-98 470.77-218.5c0-58-48.72-112.72-137.2-154Z" transform="translate(-1854.42 -267)" style="fill:url(#linear-gradient-5)"/><path class="cls-7" d="M2824.27 500c0 120.48-211.18 218.5-470.77 218.5s-470.77-98-470.77-218.5 211.18-218.5 470.77-218.5c126.05 0 244.51 22.9 333.57 64.48 88.48 41.3 137.2 96.02 137.2 154.02ZM2353.5 276.67c-126.74 0-245.93 23.06-335.62 64.93-90.27 42.15-140 98.4-140 158.4s49.72 116.26 140 158.4c89.69 41.87 208.88 64.94 335.62 64.94s245.93-23.07 335.62-64.94c90.27-42.14 140-98.4 140-158.4s-49.72-116.25-140-158.4c-89.69-41.87-208.88-64.93-335.62-64.93Z" transform="translate(-1854.42 -267)"/><g style="mask:url(#mask)"><path d="M2636.84 367.06c0 42.89-126.85 77.65-283.34 77.65s-283.34-34.71-283.34-77.65S2197 289.4 2353.5 289.4s283.34 34.77 283.34 77.66Z" transform="translate(-1854.42 -267)" style="fill:url(#linear-gradient-6)"/></g><g style="mask:url(#mask-2)"><ellipse cx="499.08" cy="392.77" rx="221.49" ry="47.7" style="fill:url(#linear-gradient-7)"/></g><path class="cls-7" d="m2166.08 370.57-.29-.17-12.05-7.54a4.91 4.91 0 1 0-.86.89l12 7.5.8 53.63h1.2l-.8-54Zm15.3 3.1 51.12-29.88a6.24 6.24 0 1 0 5.17-9.74 6.25 6.25 0 0 0-5.75 8.67l-51.45 30.08-.3.18v52.69h1.21Zm52.73-36.94a5 5 0 1 1 3.56 8.59 5 5 0 0 1-3.56-8.59Zm45.77-22.26-1.42 20.62-57.69 30.45-.32.17v.35l-.78 43.39a4.83 4.83 0 1 0 1.21 0l.77-43 57.68-30.45.29-.16v-.33l1.45-21.05a4.82 4.82 0 1 0-1.22 0Zm188.92 31.58a6.2 6.2 0 0 0 4.41-1.83 4.24 4.24 0 0 0 .43-.52l51.26 30v52h1.21V373l-.3-.18-51.51-30.11a6.11 6.11 0 0 0 .74-2.88 6.24 6.24 0 1 0-6.24 6.24Zm-3.56-9.8a5 5 0 1 1-1.47 3.56 5 5 0 0 1 1.47-3.56Zm40.76 89.43.81-45.9h-1.21l-.81 45.91Zm-36.64-52.81V395a5.39 5.39 0 1 0 4.44 1.53 5.35 5.35 0 0 0-3.24-1.53v-22.8l-.3-.17-59.3-33.66V292h-1.21v47l.31.17Zm3.59 24.48a4.23 4.23 0 0 1-3 7.21 4.23 4.23 0 1 1 0-8.45 4.16 4.16 0 0 1 2.97 1.24Zm-96.22-44.61.31.17 55.26 30.44v43.13h1.21v-43.85l-.32-.17L2377.9 352l-.8-62.32h-1.2l.8 62.72Zm-140.95 19.42v22.64a5.44 5.44 0 1 0 1.21 0v-21.93l59.3-33.66.3-.17V292h-1.21v46.36L2236.05 372Zm4.83 28a4.23 4.23 0 1 1-4.23-4.22 4.24 4.24 0 0 1 4.2 4.23Zm184.61-85.64 1.44 21v.33l.3.16 57.68 30.44.77 43.15h-.17a4.9 4.9 0 1 0 1.38.22l-.78-43.73v-.35l-.32-.17-57.7-30.45-1.41-20.58a4.86 4.86 0 1 0-1.21 0ZM2365 352.83l1.53-63.33h-1.21l-1.54 63.68v.37l.33.18 60.09 32.85v39.91h1.21v-40.64l-.32-.17Zm22.82 48.65-.28-.18-11.32-7.08a5.78 5.78 0 0 0 .25-1.56 5.71 5.71 0 1 0-.72 2.7l10.87 6.79.79 53.64h1.22l-.81-54Zm103 92.87a7 7 0 0 0-5.91 3.22l-23.32-14.26-2.39-25.47v-.32l-.28-.16-27.38-15.3-.58 1.06 27.1 15.15 2.39 25.46v.29l.25.16 23.63 14.45a7.23 7.23 0 0 0-.56 2.76 7 7 0 1 0 7-7Zm0 12.87a5.84 5.84 0 1 1 5.84-5.83 5.84 5.84 0 0 1-5.79 5.83ZM2357 357.67l.16-68.24h-1.21l-.16 68.6v.35l.3.17 56.88 32-.8 35.07h1.2l.81-35.44v-.36l-.32-.18Zm200.17-2.58a4.84 4.84 0 0 0-4.84 4.83 4.74 4.74 0 0 0 .78 2.6l-12.6 7.88-.27.17v.33l-.81 54h1.22l.8-53.63 12.46-7.79a4.83 4.83 0 1 0 3.27-8.37Zm-306 60.66.34-.16v-.37l.8-39.13 57.69-34.46.3-.19v-.34l-.8-50.74-1.21.06.8 50.34-57.7 34.46-.28.17v.34l-.8 39.1-58.58 28.49a6.58 6.58 0 0 0-4.85-2.14 6.69 6.69 0 1 0 5.61 3.12Zm-64.29 37.51a5.44 5.44 0 1 1 5.43-5.44 5.45 5.45 0 0 1-5.49 5.44Zm332.75-12.4a6.62 6.62 0 0 0-5.08 2.41L2456 414.82l-.79-39.09v-.34l-.29-.17-57.68-34.46.79-50.39h-1.21l-.8 50.75v.34l.29.19 57.69 34.44.79 39.13v.37l.33.16 58.63 28.52a6.55 6.55 0 0 0-.87 3.23 6.65 6.65 0 1 0 6.64-6.64Zm0 12.08a5.44 5.44 0 1 1 5.44-5.44 5.45 5.45 0 0 1-5.5 5.44Zm-24.89 16.71-.79-23.86v-.35l-.31-.16-48.8-25.6.8-39.1v-.35l-.3-.18-56.9-33.65-.8-54.44h-1.2l.8 54.77v.34l.3.17 56.88 33.65-.8 39.12v.37l.33.17 48.82 25.61.78 23.49a4.87 4.87 0 1 0 1.21 0Zm-232.75-88.74 56.88-33.65.29-.17v-.34l.81-54.77h-1.21l-.8 54.44-56.96 33.63-.3.18v.35l.8 39.1-48.81 25.6-.31.16v.35l-.8 23.86a4.8 4.8 0 1 0 1.21 0l.79-23.49 48.81-25.61.34-.17V420Zm67.65-28.17v-.35l.81-62.71h-1.21l-.8 62.31-55.27 30.44-.31.17v43.85h1.14v-43.1l55.26-30.44Zm-114.23 141.61a7 7 0 1 0 7.05 7 7 7 0 0 0-7.05-7Zm0 12.87a5.84 5.84 0 1 1 5.84-5.83 5.84 5.84 0 0 1-5.84 5.83Zm120-120.21a5.64 5.64 0 1 0 5.64 5.65 5.63 5.63 0 0 0-5.63-5.66Zm13.73-97.58.16 68.24-56.87 32-.32.18v.36l.81 35.44h1.21l-.8-35.07 56.87-32 .3-.17V358l-.16-68.6Zm-6.67 64.11v-.37l-1.54-63.68h-1.21l1.53 63.34-60.08 32.85-.31.17v40.63h1.2v-39.91l60.1-32.85Z" transform="translate(-1854.42 -267)"/><path class="cls-7" d="m2427.16 690.32 1.45-19.76 57.68-28.68.33-.16v-.37l.79-41a4.65 4.65 0 0 0 4.25-4.51 4.84 4.84 0 0 0-9.66 0 4.65 4.65 0 0 0 4.2 4.5l-.77 40.58-57.67 28.67-.31.16v.34l-1.45 20.24a4.62 4.62 0 0 0-4.17 4.49 4.84 4.84 0 0 0 9.66 0 4.63 4.63 0 0 0-4.33-4.5Zm-145.2.61-1.52-20.81v-.34l-.31-.16-57.69-28.62-.77-40.59h.17a4.56 4.56 0 1 0-4.83-4.56 4.61 4.61 0 0 0 3.45 4.35l.78 41.18v.37l.32.16 57.69 28.68 1.49 20.38a4.64 4.64 0 0 0-4.2 4.49 4.84 4.84 0 1 0 5.41-4.5Zm152.31-65.16v-41.33h-1.2V625l-55.25 28.66-.32.17v.36l-.72 52.95h1.21l.72-52.54 55.29-28.66Zm-196.52 9.14v-20.76a5.44 5.44 0 1 0-1.21 0v21.48l.32.17 59.28 31.69v38.35l1.21.08v-39.15l-.32-.17Zm-4.83-25.86a4.23 4.23 0 1 1 4.22 4 4.1 4.1 0 0 1-4.22-4Zm287.34-51a6.48 6.48 0 0 0-6.65 6.3 6 6 0 0 0 1 3.3L2456 594.52l-.34.15v.38l-.8 36.83-57.69 32.45-.31.18v.36l.7 41.63h1.21l-.69-41.24 57.68-32.44.29-.17v-.35l.8-36.79 58.58-26.85a6.82 6.82 0 0 0 4.86 2 6.3 6.3 0 1 0 0-12.59Zm0 11.38a5.1 5.1 0 1 1 5.43-5.08 5.28 5.28 0 0 1-5.43 5.08Zm-48.93 66.2v-21.48a5.6 5.6 0 0 0 3.23-1.44 5 5 0 0 0 0-7.33 5.62 5.62 0 0 0-3.84-1.49 5.14 5.14 0 0 0-.6 10.26v20.76l-59.29 31.69-.32.17v39.07l1.21-.06v-38.29L2471 635.8Zm-4.84-26.58a4.11 4.11 0 0 1 4.23-4 4.3 4.3 0 0 1 3 1.18 3.75 3.75 0 0 1 0 5.55 4.3 4.3 0 0 1-3 1.18 4.11 4.11 0 0 1-4.23-3.91Zm-228.23 51.25a6.37 6.37 0 0 0-4.75 2.12l-51.34-28.27V585.2H2181v49.67l.32.17 51.52 28.37a5.65 5.65 0 0 0-.78 2.81 6.25 6.25 0 1 0 6.24-5.92Zm0 10.63a4.72 4.72 0 1 1 5-4.71 4.88 4.88 0 0 1-5 4.71Zm319.26-28.57a5 5 0 0 0-3.24 1.19l-12.09-7.11-.79-50.44h-1.21l.8 50.83v.34l.29.16 12.16 7.17a4.31 4.31 0 0 0-.77 2.44 4.84 4.84 0 1 0 4.84-4.55Zm-66.67-103.43a4.84 4.84 0 1 0 4.84-4.55 4.7 4.7 0 0 0-4.84 4.55Zm.81-17.23a6.68 6.68 0 1 0-7-6.67 6.89 6.89 0 0 0 7 6.67Zm0-12.14a5.48 5.48 0 1 1-5.84 5.47 5.67 5.67 0 0 1 5.84-5.47ZM2446.37 628v-.36l-.8-36.79 48.79-24.09.32-.17v-.35l.81-22.76h-1.21l-.79 22.4-48.81 24.12-.35.17v.39l.8 36.8-56.85 31.64-.31.17v.35l-.74 47.38h1.21l.74-47 56.82-31.69Zm-280.7 8.41-12.48 7.35a4.89 4.89 0 0 0-3.71-1.68 4.56 4.56 0 1 0 4.83 4.55 4.29 4.29 0 0 0-.44-1.88l12.7-7.48.3-.16v-.34l.8-47.11h-1.21Zm50.53-115.88a6.68 6.68 0 1 0-7-6.66 6.87 6.87 0 0 0 7 6.69Zm0-12.13a5.48 5.48 0 1 1-5.83 5.47 5.67 5.67 0 0 1 5.83-5.44Zm114.17 145.44-.32-.17L2274.8 625v-40.6h-1.21v41.33l.33.17 55.25 28.67.72 52.58h1.21l-.73-53Zm-10.47 5.32-.31-.17-56.86-31.69.79-36.8v-.39l-.35-.17-48.81-24.11-.79-22.22a4.64 4.64 0 0 0 4.15-4.49 4.84 4.84 0 0 0-9.66 0 4.64 4.64 0 0 0 4.3 4.5l.8 22.62v.35l.32.17 48.79 24.09-.8 36.79v.36l.32.18 56.88 31.69.73 47h1.22l-.75-47.39Zm205.79-25-51.33 28.27a6.33 6.33 0 0 0-5.25-2.74 5.93 5.93 0 1 0 6.24 5.92 5.56 5.56 0 0 0-.43-2.11l51.67-28.5.31-.17V585.2h-1.21Zm-56.58 36.16a4.72 4.72 0 1 1 5-4.71 4.88 4.88 0 0 1-5 4.7Zm-216.06-38.43-.8-36.83v-.38l-.35-.15-58.65-26.87a6 6 0 0 0 1-3.3 6.66 6.66 0 1 0-6.64 6.29 6.8 6.8 0 0 0 4.85-2l58.59 26.85.8 36.79v.35l.3.17 57.68 32.44-.7 41.29 1.21.06.7-41.69v-.36l-.31-.18Zm-65.44-62.45a5.1 5.1 0 1 1 5.44-5.08 5.28 5.28 0 0 1-5.44 5.07Zm106.53 48.79.8-33h-1.21l-.81 33.38v.37l.33.17 56.87 30.18-.15 58.16h1.21l.14-58.53v-.36l-.32-.18Zm-11.28 3.77v-37.56h-1.21v38.3l.32.18 60.08 30.92-1.38 53.55h1.21l1.38-53.91v-.37l-.33-.18Zm131.76-2.89.33-.17v-.37l-.8-33.38h-1.21l.79 33-56.85 30.17-.32.18v.36l.15 58.51h1.2l-.14-58.15Zm-43 2.51a5.32 5.32 0 1 0-5.64-5.32 5.48 5.48 0 0 0 5.67 5.32Zm54.24 1.3.33-.18v-38.3H2425V622l-60.08 30.94-.34.18v.37l1.38 53.88h1.21l-1.37-53.52Zm-89.68-1.3a5.32 5.32 0 1 0-5.63-5.32 5.48 5.48 0 0 0 5.66 5.32ZM2070 448.23l-6.12 8.55q-10.35-9.28-23.47-9.29-15.8 0-26.92 13a44.39 44.39 0 0 0 0 57.22q11.13 13 26.92 13 13.13 0 23.47-9.33L2070 530a44.24 44.24 0 0 1-29.55 11.12q-20.22 0-34.21-16a54.4 54.4 0 0 1 0-71.87q14.1-16.11 34.21-16.1a44.31 44.31 0 0 1 29.55 11.08Zm-60.28 58.65q-3-6.66-3-9.33v-16.88q0-2.67 3-9.34Zm6.47 9.67a64.24 64.24 0 0 1-3.18-4v-46.88q1.37-1.89 3.18-4Zm6.26 5.66a27.17 27.17 0 0 1-3-2.56v-61.09a28.3 28.3 0 0 1 3-2.56Zm6.47 3.44a32.25 32.25 0 0 1-3.24-1.44V454a34.7 34.7 0 0 1 3.24-1.45Zm6.25 1.89c-1.07-.22-2.15-.48-3.23-.78v-75.31c1.08-.29 2.16-.56 3.23-.78Zm6.48.44-1 .12h-.44l-1.79-.12v-77.75l1.56-.11h.78l.9.11ZM2120 538.3h-8.69l-3.31-13.48h-21.61L2083 538.3h-8.67l19.83-79.59h6Zm-14.18-21.89-8.72-35.07-8.74 35.07Zm19.21 21.89h-2.6l-19.84-79.59h2.61Zm5.29 0h-2.57L2108 458.7h2.6Zm5.3 0H2133l-19.81-79.6h2.6Zm5.29 0h-2.61l-19.94-79.59h2.69Zm5.3 0h-2.69l-19.83-79.59h2.6Zm5.2 0h-2.6L2129 458.71h2.6Z" transform="translate(-1854.42 -267)"/><path class="cls-7" d="M2247.17 538.52h-10.75l-4.1-16.82h-26.72l-4.41 16.82h-10.67l24.54-98.58h7.45Zm-17.55-27.18-10.82-43.53-10.8 43.53Zm23.77 27.18h-3.22l-24.55-98.58h3.22Zm6.55 0h-3.24l-24.44-98.6h3.21Zm6.56 0-3.55.08-24.45-98.6 3.25-.06Zm6.55 0h-3.23L2245.05 440h3.35Zm6.55 0h-3.34l-24.55-98.58h3.23Zm6.44 0h-3.22l-24.54-98.58h3.21ZM2341 538.3h-9.79L2302 489.42v48.88h-8.41v-79.59Zm5.74 0h-3l-47.37-79.59h3Zm5.92 0-2.85-.06-47.52-79.51h3Zm11.71 0h-8.45l-47.59-79.59h3l44.52 75v-5.19l-41.62-69.79h3l38.63 64.81v-5l-35.67-59.78h3l32.71 54.85v-5l-29.66-49.83h3l26.69 44.88v-44.95h8.52ZM2384.69 538.3h-8.43v-79.59h8.43Zm4.85 0H2387v-79.59h2.51Zm5.16 0h-2.58v-79.59h2.58Zm5.18 0h-2.59v-79.59h2.59Zm5.07 0h-2.59v-79.59h2.64Zm5.17 0h-2.58v-79.59h2.58Zm41.7-39.84a39.58 39.58 0 0 1-10.77 27.85q-11.13 12-27.1 12h-1.34v-79.6h1.39q16 0 27.1 12a39.48 39.48 0 0 1 10.72 27.75Zm-8.43-.07a31.71 31.71 0 0 0-7.9-21.36 27.72 27.72 0 0 0-20.29-10v62.77a27.4 27.4 0 0 0 20.19-10 31.57 31.57 0 0 0 8-21.41ZM2544.58 527.21l-6.11 10.22-35.54-59.54v60.43h-10.44v-98.53Zm3.56-5.89-1.89 3.11-50.32-84.53h3.67Zm3.67-6.22-1.9 3.11-46.65-78.31h3.67Zm3.65-6.22-1.77 3.11-43-72.09h3.66Zm3.67-6.11-1.77 3L2518 439.9h3.67Zm3.67-6.22-1.78 3.11-35.54-59.76h3.52Zm23 41.77h-10.55v-62.76l-10.56 17.88-31.87-53.54h3.67l24 40.21 23.88-40.21h1.44Zm6 0h-3.22V439.9h3.22Zm6.33 0H2595V439.9h3.11Zm6.34 0h-3.12V439.9h3.12Zm6.33 0h-3.12V439.9h3.12Zm6.33 0H2614V439.9h3.11Zm6.33 0h-3.11V439.9h3.11ZM2682.9 538.3h-8.7l-3.32-13.48h-21.61l-3.47 13.48h-8.66l19.86-79.59h6Zm-14.18-21.89-8.72-35.07-8.74 35.07Zm19.2 21.89h-2.6l-19.83-79.59h2.6Zm5.3 0h-2.58l-19.8-79.59h2.59Zm5.29 0h-2.63l-19.81-79.6h2.6Zm5.29 0h-2.61l-19.94-79.59h2.7Zm5.3 0h-2.69l-19.83-79.59h2.6Zm5.2 0h-2.6l-19.83-79.59h2.6ZM2064.93 590.5c-1.87 1-5.81 1.94-10.77 1.94-11.51 0-20.11-7.27-20.11-20.71 0-12.83 8.66-21.43 21.32-21.43 5 0 8.29 1.09 9.69 1.82l-1.34 4.3a18.63 18.63 0 0 0-8.17-1.7c-9.57 0-15.93 6.12-15.93 16.83 0 10.05 5.76 16.41 15.63 16.41a21.38 21.38 0 0 0 8.66-1.69ZM2082.31 592.44c-7.87 0-14-5.81-14-15.07 0-9.81 6.48-15.57 14.54-15.57 8.41 0 14.1 6.12 14.1 15 0 10.9-7.56 15.62-14.53 15.62Zm.18-4c5.09 0 8.9-4.79 8.9-11.45 0-5-2.48-11.2-8.78-11.2s-9 5.81-9 11.38c0 6.42 3.64 11.27 8.78 11.27ZM2103.38 570.4c0-3.08-.12-5.51-.24-7.93h4.66l.24 4.72h.18a10.15 10.15 0 0 1 9.27-5.39 8.65 8.65 0 0 1 8.23 5.88h.12a11.59 11.59 0 0 1 3.33-3.82 9.84 9.84 0 0 1 6.42-2.06c3.94 0 9.69 2.55 9.69 12.72v17.26h-5.21v-16.59c0-5.69-2.12-9-6.36-9a7 7 0 0 0-6.35 4.79 9.09 9.09 0 0 0-.43 2.66v18.17h-5.2v-17.59c0-4.72-2.06-8.06-6.12-8.06-3.27 0-5.75 2.67-6.6 5.33a7.45 7.45 0 0 0-.42 2.61v17.68h-5.21ZM2153.63 572c0-3.76-.06-6.78-.24-9.57h4.78l.31 5h.12a11.3 11.3 0 0 1 10.35-5.7c7.15 0 12.48 6 12.48 14.9 0 10.53-6.48 15.74-13.32 15.74-3.94 0-7.27-1.69-9-4.6h-.11v15.92h-5.33Zm5.33 7.81a8.73 8.73 0 0 0 .25 2.18 8.14 8.14 0 0 0 7.93 6.23c5.63 0 8.9-4.6 8.9-11.32 0-5.87-3-10.9-8.66-10.9a8.51 8.51 0 0 0-8.11 6.54 13.61 13.61 0 0 0-.31 2.18ZM2199.83 592.44c-7.87 0-14-5.81-14-15.07 0-9.81 6.48-15.57 14.54-15.57 8.41 0 14.1 6.12 14.1 15 0 10.9-7.56 15.62-14.53 15.62Zm.18-4c5.09 0 8.9-4.79 8.9-11.45 0-5-2.48-11.2-8.78-11.2s-9 5.81-9 11.38c0 6.42 3.64 11.27 8.78 11.27ZM2220.9 570.4c0-3.08-.06-5.51-.24-7.93h4.72l.3 4.78h.13a10.85 10.85 0 0 1 9.68-5.45c4.06 0 10.36 2.43 10.36 12.48v17.5h-5.33v-16.9c0-4.72-1.76-8.72-6.78-8.72a7.7 7.7 0 0 0-7.15 5.45 8 8 0 0 0-.36 2.49v17.68h-5.33ZM2257.29 578c.12 7.21 4.66 10.17 10 10.17a20.13 20.13 0 0 0 8.11-1.45l1 3.75a23.81 23.81 0 0 1-9.81 1.88c-9 0-14.41-6-14.41-14.77s5.27-15.87 13.81-15.87c9.56 0 12.05 8.42 12.05 13.81a13.75 13.75 0 0 1-.18 2.54Zm15.56-3.81c.06-3.33-1.39-8.66-7.32-8.66-5.45 0-7.76 5-8.18 8.66ZM2284.35 570.4c0-3.08-.06-5.51-.24-7.93h4.72l.31 4.78h.12a10.86 10.86 0 0 1 9.69-5.45c4.05 0 10.35 2.43 10.35 12.48v17.5h-5.3v-16.9c0-4.72-1.76-8.72-6.78-8.72a7.71 7.71 0 0 0-7.15 5.45 8 8 0 0 0-.36 2.49v17.68h-5.33ZM2323.89 555.45v7h7.63v4.06h-7.63v15.8c0 3.63 1 5.69 4 5.69a10.08 10.08 0 0 0 3.09-.36l.24 4.06a14.69 14.69 0 0 1-4.73.72 7.61 7.61 0 0 1-5.75-2.24c-1.45-1.63-2.06-4.24-2.06-7.69v-16h-4.54v-4.06h4.54v-5.39ZM2339.93 578c.13 7.21 4.67 10.17 10 10.17a20.17 20.17 0 0 0 8.11-1.45l1 3.75a23.85 23.85 0 0 1-9.81 1.88c-9 0-14.41-6-14.41-14.77s5.27-15.87 13.8-15.87c9.57 0 12 8.42 12 13.81a13.75 13.75 0 0 1-.18 2.54Zm15.56-3.81c.07-3.33-1.39-8.66-7.32-8.66-5.45 0-7.75 5-8.17 8.66ZM2366.27 586.39a15.06 15.06 0 0 0 7.09 2.06c3.81 0 5.63-1.88 5.63-4.37s-1.52-3.93-5.39-5.38c-5.33-1.94-7.81-4.78-7.81-8.3 0-4.72 3.87-8.6 10.11-8.6a13.56 13.56 0 0 1 7.14 1.82l-1.27 3.82a12 12 0 0 0-6-1.7c-3.15 0-4.84 1.82-4.84 4 0 2.49 1.69 3.58 5.51 5 5 1.88 7.69 4.42 7.69 8.84 0 5.21-4.06 8.84-10.9 8.84a16.74 16.74 0 0 1-8.24-2.06ZM2424.58 572.64h-15.8v14.72h17.67v4.42h-23V551h22.1v4.42h-16.77v12.89h15.8ZM2433 548.79h5.32v43H2433ZM2450 578c.12 7.21 4.66 10.17 10 10.17a20.17 20.17 0 0 0 8.11-1.45l1 3.75a23.85 23.85 0 0 1-9.81 1.88c-9 0-14.41-6-14.41-14.77s5.27-15.87 13.8-15.87c9.57 0 12.05 8.42 12.05 13.81a13.75 13.75 0 0 1-.18 2.54Zm15.55-3.81c.07-3.33-1.39-8.66-7.32-8.66-5.45 0-7.75 5-8.18 8.66ZM2483.43 555.45v7h7.62v4.06h-7.62v15.8c0 3.63 1 5.69 4 5.69a10 10 0 0 0 3.08-.36l.25 4.06a14.74 14.74 0 0 1-4.73.72 7.61 7.61 0 0 1-5.75-2.24c-1.45-1.63-2.06-4.24-2.06-7.69v-16h-4.54v-4.06h4.54v-5.39ZM2496.87 571.61c0-3.45-.06-6.41-.24-9.14h4.66l.24 5.75h.18c1.33-3.93 4.6-6.42 8.18-6.42a5.29 5.29 0 0 1 1.45.19v5a17.49 17.49 0 0 0-1.88-.12c-3.75 0-6.42 2.85-7.14 6.78a16.87 16.87 0 0 0-.18 2.54v15.63h-5.33ZM2527.93 592.44c-7.87 0-14-5.81-14-15.07 0-9.81 6.48-15.57 14.53-15.57 8.42 0 14.11 6.12 14.11 15 0 10.9-7.57 15.62-14.53 15.62Zm.18-4c5.09 0 8.9-4.79 8.9-11.45 0-5-2.48-11.2-8.78-11.2s-8.95 5.81-8.95 11.38c0 6.42 3.62 11.27 8.77 11.27ZM2549 570.4c0-3.08-.06-5.51-.24-7.93h4.72l.3 4.78h.13a10.85 10.85 0 0 1 9.68-5.45c4.06 0 10.36 2.43 10.36 12.48v17.5h-5.33v-16.9c0-4.72-1.76-8.72-6.78-8.72a7.71 7.71 0 0 0-7.15 5.45 8 8 0 0 0-.36 2.49v17.68H2549ZM2584.91 557.08a3.42 3.42 0 1 1 3.51-3.45 3.34 3.34 0 0 1-3.46 3.45Zm-2.55 34.7v-29.31h5.33v29.31ZM2617.18 590.75a20.72 20.72 0 0 1-8.42 1.69c-8.84 0-14.59-6-14.59-15s6.17-15.63 15.74-15.63a16.76 16.76 0 0 1 7.39 1.58l-1.22 4.06a12.91 12.91 0 0 0-6.17-1.4c-6.72 0-10.35 5-10.35 11.14 0 6.78 4.35 11 10.17 11a15.41 15.41 0 0 0 6.54-1.39ZM2634.73 592.44c-7.87 0-14-5.81-14-15.07 0-9.81 6.48-15.57 14.53-15.57 8.41 0 14.1 6.12 14.1 15 0 10.9-7.56 15.62-14.53 15.62Zm.19-4c5.08 0 8.89-4.79 8.89-11.45 0-5-2.47-11.2-8.77-11.2s-9 5.81-9 11.38c0 6.42 3.63 11.27 8.78 11.27ZM2655.08 586.39a15 15 0 0 0 7.08 2.06c3.82 0 5.63-1.88 5.63-4.37s-1.51-3.93-5.38-5.38c-5.33-1.94-7.82-4.78-7.82-8.3 0-4.72 3.88-8.6 10.12-8.6a13.58 13.58 0 0 1 7.14 1.82l-1.27 3.82a12 12 0 0 0-6-1.7c-3.15 0-4.85 1.82-4.85 4 0 2.49 1.7 3.58 5.51 5 5 1.88 7.69 4.42 7.69 8.84 0 5.21-4.05 8.84-10.9 8.84a16.7 16.7 0 0 1-8.23-2.06Z" transform="translate(-1854.42 -267)"/></g></g></g></svg>